# Blender 5.1.1
# www.blender.org
o Ala_sx_f__export
v -0.007774 0.076253 -0.009053
v -0.007774 0.174802 0.038106
v -0.007774 0.304971 0.132550
v -0.007774 0.471891 0.287109
v -0.007774 0.601746 0.457463
v -0.007774 0.679950 0.622024
v -0.007774 0.703369 0.751434
v -0.007774 0.693413 0.853363
v -0.007774 0.667894 0.911434
v -0.007774 0.605363 0.923093
v -0.007774 0.543666 0.928117
v -0.007774 0.512030 0.921307
v -0.007774 0.476555 0.914330
v -0.007774 0.417476 0.890282
v -0.007774 0.352437 0.876181
v -0.007774 0.299308 0.861062
v -0.007774 0.230078 0.858452
v -0.007774 0.164252 0.845091
v -0.007774 0.087796 0.835538
v -0.007774 0.015392 0.782088
v -0.007774 -0.028121 0.667748
v -0.007774 -0.031690 0.503170
v -0.007774 -0.011910 0.249734
v -0.007774 -0.002584 0.052312
v -0.007774 0.016800 -0.008476
v 0.001755 -0.006915 0.007612
v 0.001947 0.006943 0.107698
v 0.001951 0.007171 0.252050
v 0.001823 -0.001974 0.402584
v 0.001559 -0.020991 0.564307
v 0.001080 -0.055420 0.655176
v 0.000262 -0.114321 0.719380
v -0.000804 -0.190991 0.750280
v -0.001601 -0.248315 0.741696
v -0.002050 -0.280621 0.736061
v -0.002627 -0.322139 0.738456
v -0.003246 -0.366672 0.714205
v -0.003790 -0.405827 0.700493
v -0.004549 -0.460375 0.688582
v -0.005067 -0.497699 0.660492
v -0.005691 -0.542556 0.638042
v -0.006139 -0.574796 0.624299
v -0.006536 -0.603371 0.603867
v -0.006928 -0.631560 0.574221
v -0.007475 -0.670896 0.545811
v -0.008216 -0.724191 0.521786
v -0.008532 -0.746955 0.493797
v -0.008628 -0.753839 0.445296
v -0.008919 -0.774800 0.382867
v -0.008974 -0.778716 0.326139
v -0.008418 -0.738700 0.251575
v -0.007617 -0.681076 0.203346
v -0.006252 -0.582910 0.166501
v -0.003929 -0.415765 0.099864
v -0.002006 -0.277442 0.056613
v -0.000444 -0.165076 0.011118
v 0.000901 -0.068311 -0.004657
v -0.007774 0.121685 0.008924
v -0.007774 0.234668 0.078153
v -0.007774 0.388141 0.204756
v -0.007774 0.543342 0.371924
v -0.007774 0.647516 0.542570
v -0.007774 0.697531 0.690788
v -0.007774 0.700566 0.806313
v -0.007774 0.684133 0.888922
v -0.007774 0.639818 0.920308
v -0.007774 0.571470 0.926402
v -0.007774 0.525601 0.925292
v -0.007774 0.496757 0.919123
v -0.007774 0.449407 0.902813
v -0.007774 0.383724 0.882507
v -0.007774 0.326308 0.867751
v -0.007774 0.265708 0.859757
v -0.007774 0.197311 0.851986
v -0.007774 0.127109 0.842027
v -0.007774 0.049461 0.816538
v -0.007774 -0.010999 0.730657
v -0.007774 -0.034467 0.595686
v -0.007774 -0.022095 0.380719
v -0.007774 -0.006291 0.135573
v -0.007774 0.003633 0.009061
v -0.007774 0.041102 -0.014089
v 0.001906 0.003932 0.047834
v 0.001961 0.007901 0.178215
v 0.001904 0.003804 0.325116
v 0.001711 -0.010085 0.487639
v 0.001355 -0.035704 0.617025
v 0.000716 -0.081633 0.689632
v -0.000271 -0.152656 0.740275
v -0.001256 -0.223478 0.748489
v -0.001838 -0.265350 0.736818
v -0.002317 -0.299835 0.739097
v -0.002949 -0.345288 0.727802
v -0.003502 -0.385061 0.705492
v -0.004173 -0.433351 0.696068
v -0.004820 -0.479885 0.675491
v -0.005378 -0.520022 0.647763
v -0.005936 -0.560159 0.631024
v -0.006339 -0.589189 0.615437
v -0.006727 -0.617059 0.589580
v -0.007167 -0.648771 0.559445
v -0.007861 -0.698647 0.533504
v -0.008431 -0.739693 0.509410
v -0.008571 -0.749735 0.472343
v -0.008763 -0.763584 0.413861
v -0.009013 -0.781540 0.355680
v -0.008750 -0.762607 0.288783
v -0.008048 -0.712095 0.223414
v -0.007056 -0.640747 0.187499
v -0.005129 -0.502133 0.133550
v -0.002895 -0.341381 0.076547
v -0.001199 -0.219420 0.032541
v 0.000267 -0.113947 0.000097
v 0.001410 -0.031689 -0.005912
v -0.007774 0.320845 0.605778
v -0.003661 -0.396535 0.449361
vn 1.0000 -0.0000 -0.0000
vn 0.9999 -0.0139 -0.0000
vt 0.521337 0.711616
vt 0.796657 0.783358
vt 0.509405 0.687184
vt 0.563383 0.770708
vt 0.542360 0.741162
vt 0.643498 0.860482
vt 0.603440 0.815595
vt 0.725317 0.921847
vt 0.684407 0.891165
vt 0.808273 0.960484
vt 0.766795 0.941165
vt 0.867933 0.969575
vt 0.838103 0.965029
vt 0.919070 0.962188
vt 0.893502 0.965882
vt 0.948048 0.936904
vt 0.933559 0.958211
vt 0.948048 0.954234
vt 0.948048 0.919574
vt 0.950037 0.881221
vt 0.950605 0.903097
vt 0.953162 0.886619
vt 0.946911 0.875823
vt 0.939241 0.845425
vt 0.947196 0.868153
vt 0.947480 0.860482
vt 0.931002 0.830368
vt 0.939241 0.845425
vt 0.927593 0.796277
vt 0.929298 0.813322
vt 0.916797 0.775822
vt 0.922195 0.786049
vt 0.920207 0.738321
vt 0.918502 0.757072
vt 0.909411 0.709912
vt 0.914809 0.724117
vt 0.899030 0.652814
vt 0.910276 0.690591
vt 0.911141 0.671270
vt 0.857504 0.623400
vt 0.886918 0.634358
vt 0.828090 0.612442
vt 0.758881 0.611865
vt 0.793485 0.612154
vt 0.619886 0.625707
vt 0.689383 0.618786
vt 0.517225 0.627437
vt 0.568556 0.626572
vt 0.498410 0.648267
vt 0.508286 0.630610
vt 0.499346 0.633782
vt 0.509405 0.687184
vt 0.497473 0.662752
vt 0.554618 0.632962
vt 0.721617 0.439199
vt 0.527383 0.631961
vt 0.627912 0.633763
vt 0.591265 0.633362
vt 0.695391 0.629149
vt 0.661652 0.631456
vt 0.785940 0.620499
vt 0.740665 0.624824
vt 0.820545 0.604928
vt 0.803242 0.612714
vt 0.862070 0.556198
vt 0.837270 0.590800
vt 0.853996 0.576671
vt 0.865531 0.521597
vt 0.870144 0.535726
vt 0.860917 0.507468
vt 0.857456 0.496511
vt 0.859186 0.501990
vt 0.855438 0.463640
vt 0.860917 0.485842
vt 0.864377 0.475174
vt 0.846498 0.452106
vt 0.855438 0.463640
vt 0.841884 0.437689
vt 0.844191 0.444898
vt 0.830257 0.399074
vt 0.840223 0.421496
vt 0.838562 0.405302
vt 0.821952 0.392846
vt 0.830257 0.399074
vt 0.811155 0.367102
vt 0.816553 0.379974
vt 0.806334 0.353815
vt 0.808744 0.360459
vt 0.796690 0.339698
vt 0.801512 0.346757
vt 0.781257 0.327242
vt 0.788974 0.333470
vt 0.767415 0.309941
vt 0.774336 0.318591
vt 0.750689 0.273898
vt 0.761936 0.294082
vt 0.756457 0.278223
vt 0.733099 0.269861
vt 0.744922 0.269573
vt 0.721275 0.270150
vt 0.687824 0.256309
vt 0.704550 0.263229
vt 0.644569 0.262941
vt 0.676866 0.253714
vt 0.665908 0.251119
vt 0.623229 0.274763
vt 0.596410 0.320610
vt 0.612559 0.287450
vt 0.601889 0.300137
vt 0.590931 0.341082
vt 0.549406 0.435082
vt 0.570169 0.388082
vt 0.535564 0.497941
vt 0.542485 0.466512
vt 0.505573 0.575217
vt 0.521434 0.524469
vt 0.507304 0.550997
vt 0.503843 0.599438
vt 0.501995 0.615199
vt 0.500147 0.630960
vt 0.542360 0.741162
vt 0.838103 0.965029
vt 0.933559 0.958211
vt 0.947196 0.868153
vt 0.918502 0.757072
vt 0.914809 0.724117
vt 0.910276 0.690591
vt 0.793485 0.612154
vt 0.689383 0.618786
vt 0.591265 0.633362
vt 0.661652 0.631456
vt 0.803242 0.612714
vt 0.860917 0.485842
vt 0.808744 0.360459
vt 0.761936 0.294082
vt 0.501995 0.615199
s 0
f 2/1/1 115/2/1 58/3/1
f 3/4/1 115/2/1 59/5/1
f 4/6/1 115/2/1 60/7/1
f 5/8/1 115/2/1 61/9/1
f 6/10/1 115/2/1 62/11/1
f 7/12/1 115/2/1 63/13/1
f 8/14/1 115/2/1 64/15/1
f 66/16/1 65/17/1 9/18/1
f 10/19/1 115/2/1 66/16/1
f 68/20/1 67/21/1 11/22/1
f 12/23/1 115/2/1 68/20/1
f 70/24/1 69/25/1 13/26/1
f 14/27/1 115/2/1 70/28/1
f 15/29/1 115/2/1 71/30/1
f 16/31/1 115/2/1 72/32/1
f 17/33/1 115/2/1 73/34/1
f 18/35/1 115/2/1 74/36/1
f 76/37/1 75/38/1 19/39/1
f 77/40/1 76/37/1 20/41/1
f 21/42/1 115/2/1 77/40/1
f 22/43/1 115/2/1 78/44/1
f 23/45/1 115/2/1 79/46/1
f 24/47/1 115/2/1 80/48/1
f 82/49/1 81/50/1 25/51/1
f 58/52/1 82/49/1 1/53/1
f 27/54/2 116/55/2 83/56/2
f 28/57/2 116/55/2 84/58/2
f 29/59/2 116/55/2 85/60/2
f 30/61/2 116/55/2 86/62/2
f 31/63/2 116/55/2 87/64/2
f 89/65/2 88/66/2 32/67/2
f 90/68/2 89/65/2 33/69/2
f 34/70/2 116/55/2 90/68/2
f 35/71/2 116/55/2 91/72/2
f 93/73/2 92/74/2 36/75/2
f 37/76/2 116/55/2 93/77/2
f 38/78/2 116/55/2 94/79/2
f 96/80/2 95/81/2 39/82/2
f 40/83/2 116/55/2 96/84/2
f 41/85/2 116/55/2 97/86/2
f 42/87/2 116/55/2 98/88/2
f 43/89/2 116/55/2 99/90/2
f 44/91/2 116/55/2 100/92/2
f 45/93/2 116/55/2 101/94/2
f 103/95/2 102/96/2 46/97/2
f 104/98/2 103/95/2 47/99/2
f 48/100/2 116/55/2 104/98/2
f 49/101/2 116/55/2 105/102/2
f 107/103/2 106/104/2 50/105/2
f 51/106/2 116/55/2 107/103/2
f 109/107/2 108/108/2 52/109/2
f 53/110/2 116/55/2 109/107/2
f 54/111/2 116/55/2 110/112/2
f 55/113/2 116/55/2 111/114/2
f 113/115/2 112/116/2 56/117/2
f 57/118/2 116/55/2 113/115/2
f 83/56/2 114/119/2 26/120/2
f 2/1/1 59/121/1 115/2/1
f 3/4/1 60/7/1 115/2/1
f 4/6/1 61/9/1 115/2/1
f 5/8/1 62/11/1 115/2/1
f 6/10/1 63/122/1 115/2/1
f 7/12/1 64/15/1 115/2/1
f 8/14/1 65/123/1 115/2/1
f 66/16/1 115/2/1 65/17/1
f 10/19/1 67/21/1 115/2/1
f 68/20/1 115/2/1 67/21/1
f 12/23/1 69/124/1 115/2/1
f 70/24/1 115/2/1 69/25/1
f 14/27/1 71/30/1 115/2/1
f 15/29/1 72/32/1 115/2/1
f 16/31/1 73/125/1 115/2/1
f 17/33/1 74/126/1 115/2/1
f 18/35/1 75/127/1 115/2/1
f 76/37/1 115/2/1 75/38/1
f 77/40/1 115/2/1 76/37/1
f 21/42/1 78/128/1 115/2/1
f 22/43/1 79/129/1 115/2/1
f 23/45/1 80/48/1 115/2/1
f 24/47/1 81/50/1 115/2/1
f 82/49/1 115/2/1 81/50/1
f 58/52/1 115/2/1 82/49/1
f 27/54/2 84/130/2 116/55/2
f 28/57/2 85/131/2 116/55/2
f 29/59/2 86/62/2 116/55/2
f 30/61/2 87/132/2 116/55/2
f 31/63/2 88/66/2 116/55/2
f 89/65/2 116/55/2 88/66/2
f 90/68/2 116/55/2 89/65/2
f 34/70/2 91/72/2 116/55/2
f 35/71/2 92/133/2 116/55/2
f 93/73/2 116/55/2 92/74/2
f 37/76/2 94/79/2 116/55/2
f 38/78/2 95/81/2 116/55/2
f 96/80/2 116/55/2 95/81/2
f 40/83/2 97/86/2 116/55/2
f 41/85/2 98/134/2 116/55/2
f 42/87/2 99/90/2 116/55/2
f 43/89/2 100/92/2 116/55/2
f 44/91/2 101/94/2 116/55/2
f 45/93/2 102/135/2 116/55/2
f 103/95/2 116/55/2 102/96/2
f 104/98/2 116/55/2 103/95/2
f 48/100/2 105/102/2 116/55/2
f 49/101/2 106/104/2 116/55/2
f 107/103/2 116/55/2 106/104/2
f 51/106/2 108/108/2 116/55/2
f 109/107/2 116/55/2 108/108/2
f 53/110/2 110/112/2 116/55/2
f 54/111/2 111/114/2 116/55/2
f 55/113/2 112/116/2 116/55/2
f 113/115/2 116/55/2 112/116/2
f 57/118/2 114/136/2 116/55/2
f 83/56/2 116/55/2 114/119/2
