# Blender 5.1.1
# www.blender.org
o Tappo
v 2.413721 2.937255 -1.247288
v 2.413721 3.145384 -1.272853
v 2.424040 2.937255 -1.246639
v 2.427244 3.145384 -1.272003
v 2.434196 2.937255 -1.244702
v 2.440553 3.145384 -1.269464
v 2.444028 2.937255 -1.241507
v 2.453439 3.145384 -1.265277
v 2.453383 2.937255 -1.237105
v 2.465699 3.145384 -1.259508
v 2.462113 2.937255 -1.231565
v 2.477140 3.145384 -1.252247
v 2.470079 2.937255 -1.224974
v 2.487580 3.145384 -1.243611
v 2.477156 2.937255 -1.217438
v 2.496855 3.145384 -1.233734
v 2.483233 2.937255 -1.209073
v 2.504819 3.145384 -1.222772
v 2.488214 2.937255 -1.200013
v 2.511347 3.145384 -1.210898
v 2.492020 2.937255 -1.190400
v 2.516335 3.145384 -1.198300
v 2.494591 2.937255 -1.180386
v 2.519704 3.145384 -1.185177
v 2.495887 2.937255 -1.170129
v 2.521402 3.145384 -1.171734
v 2.495887 2.937255 -1.159790
v 2.521402 3.145384 -1.158185
v 2.494591 2.937255 -1.149533
v 2.519704 3.145384 -1.144742
v 2.492020 2.937255 -1.139518
v 2.516335 3.145384 -1.131618
v 2.488214 2.937255 -1.129906
v 2.511347 3.145384 -1.119020
v 2.483233 2.937255 -1.120845
v 2.504819 3.145384 -1.107147
v 2.477156 2.937255 -1.112481
v 2.496855 3.145384 -1.096185
v 2.470079 2.937255 -1.104944
v 2.487580 3.145384 -1.086308
v 2.462113 2.937255 -1.098354
v 2.477140 3.145384 -1.077671
v 2.453383 2.937255 -1.092814
v 2.465699 3.145384 -1.070411
v 2.444028 2.937255 -1.088412
v 2.453439 3.145384 -1.064642
v 2.434196 2.937255 -1.085217
v 2.440553 3.145384 -1.060455
v 2.424040 2.937255 -1.083280
v 2.427244 3.145384 -1.057916
v 2.413721 2.937255 -1.082631
v 2.413721 3.145384 -1.057065
v 2.403403 2.937255 -1.083280
v 2.400198 3.145384 -1.057916
v 2.393247 2.937255 -1.085217
v 2.386889 3.145384 -1.060455
v 2.383414 2.937255 -1.088412
v 2.374003 3.145384 -1.064642
v 2.374059 2.937255 -1.092814
v 2.361743 3.145384 -1.070411
v 2.365330 2.937255 -1.098354
v 2.350302 3.145384 -1.077671
v 2.357363 2.937255 -1.104944
v 2.339863 3.145384 -1.086308
v 2.350286 2.937255 -1.112481
v 2.330587 3.145384 -1.096185
v 2.344209 2.937255 -1.120845
v 2.322623 3.145384 -1.107147
v 2.339228 2.937255 -1.129906
v 2.316096 3.145384 -1.119020
v 2.335422 2.937255 -1.139518
v 2.311108 3.145384 -1.131618
v 2.332851 2.937255 -1.149533
v 2.307738 3.145384 -1.144742
v 2.331555 2.937255 -1.159790
v 2.306040 3.145384 -1.158185
v 2.331555 2.937255 -1.170129
v 2.306040 3.145384 -1.171734
v 2.332851 2.937255 -1.180386
v 2.307738 3.145384 -1.185177
v 2.335422 2.937255 -1.190400
v 2.311108 3.145384 -1.198300
v 2.339228 2.937255 -1.200013
v 2.316096 3.145384 -1.210898
v 2.344209 2.937255 -1.209073
v 2.322623 3.145384 -1.222772
v 2.350286 2.937255 -1.217438
v 2.330587 3.145384 -1.233734
v 2.357363 2.937255 -1.224974
v 2.339863 3.145384 -1.243611
v 2.365330 2.937255 -1.231565
v 2.350302 3.145384 -1.252247
v 2.374059 2.937255 -1.237105
v 2.361743 3.145384 -1.259508
v 2.383414 2.937255 -1.241507
v 2.374003 3.145384 -1.265277
v 2.393247 2.937255 -1.244702
v 2.386889 3.145384 -1.269464
v 2.403403 2.937255 -1.246639
v 2.400198 3.145384 -1.272003
v 2.426523 3.151278 -1.266299
v 2.413721 3.151278 -1.267105
v 2.439124 3.151278 -1.263896
v 2.451323 3.151278 -1.259932
v 2.462930 3.151278 -1.254470
v 2.473761 3.151278 -1.247597
v 2.483644 3.151278 -1.239420
v 2.492425 3.151278 -1.230069
v 2.499965 3.151278 -1.219692
v 2.506145 3.151278 -1.208451
v 2.510867 3.151278 -1.196524
v 2.514057 3.151278 -1.184099
v 2.515665 3.151278 -1.171373
v 2.515665 3.151278 -1.158546
v 2.514057 3.151278 -1.145819
v 2.510867 3.151278 -1.133395
v 2.506145 3.151278 -1.121468
v 2.499965 3.151278 -1.110227
v 2.492425 3.151278 -1.099849
v 2.483644 3.151278 -1.090499
v 2.473761 3.151278 -1.082322
v 2.462930 3.151278 -1.075449
v 2.451323 3.151278 -1.069987
v 2.439124 3.151278 -1.066023
v 2.426523 3.151278 -1.063619
v 2.413721 3.151278 -1.062814
v 2.400919 3.151278 -1.063619
v 2.388319 3.151278 -1.066023
v 2.376119 3.151278 -1.069987
v 2.364512 3.151278 -1.075449
v 2.353682 3.151278 -1.082322
v 2.343798 3.151278 -1.090499
v 2.335017 3.151278 -1.099849
v 2.327477 3.151278 -1.110227
v 2.321297 3.151278 -1.121468
v 2.316575 3.151278 -1.133395
v 2.313385 3.151278 -1.145819
v 2.311777 3.151278 -1.158546
v 2.311777 3.151278 -1.171373
v 2.313385 3.151278 -1.184099
v 2.316575 3.151278 -1.196524
v 2.321297 3.151278 -1.208451
v 2.327477 3.151278 -1.219692
v 2.335017 3.151278 -1.230069
v 2.343798 3.151278 -1.239420
v 2.353682 3.151278 -1.247597
v 2.364512 3.151278 -1.254470
v 2.376119 3.151278 -1.259932
v 2.388319 3.151278 -1.263896
v 2.400919 3.151278 -1.266299
vn -0.0000 -0.7360 -0.6770
vn -0.0000 0.3145 -0.9492
vn 0.0848 -0.7360 -0.6716
vn 0.1190 0.3145 -0.9418
vn 0.1684 -0.7360 -0.6557
vn 0.2361 0.3145 -0.9194
vn 0.2492 -0.7360 -0.6294
vn 0.3494 0.3145 -0.8826
vn 0.3261 -0.7360 -0.5932
vn 0.4573 0.3145 -0.8318
vn 0.3979 -0.7360 -0.5477
vn 0.5580 0.3145 -0.7680
vn 0.4634 -0.7360 -0.4935
vn 0.6498 0.3145 -0.6920
vn 0.5216 -0.7360 -0.4315
vn 0.7314 0.3145 -0.6051
vn 0.5716 -0.7360 -0.3627
vn 0.8015 0.3145 -0.5086
vn 0.6125 -0.7360 -0.2882
vn 0.8589 0.3145 -0.4042
vn 0.6438 -0.7360 -0.2092
vn 0.9028 0.3145 -0.2933
vn 0.6650 -0.7360 -0.1269
vn 0.9324 0.3145 -0.1779
vn 0.6756 -0.7360 -0.0425
vn 0.9474 0.3145 -0.0596
vn 0.6756 -0.7360 0.0425
vn 0.9474 0.3145 0.0596
vn 0.6650 -0.7360 0.1268
vn 0.9324 0.3145 0.1779
vn 0.6438 -0.7360 0.2092
vn 0.9028 0.3145 0.2933
vn 0.6125 -0.7360 0.2882
vn 0.8589 0.3145 0.4042
vn 0.5716 -0.7360 0.3627
vn 0.8015 0.3145 0.5086
vn 0.5216 -0.7360 0.4315
vn 0.7314 0.3145 0.6051
vn 0.4634 -0.7360 0.4935
vn 0.6498 0.3145 0.6920
vn 0.3979 -0.7360 0.5477
vn 0.5580 0.3145 0.7680
vn 0.3261 -0.7360 0.5932
vn 0.4573 0.3145 0.8318
vn 0.2492 -0.7360 0.6294
vn 0.3494 0.3145 0.8826
vn 0.1684 -0.7360 0.6557
vn 0.2361 0.3145 0.9194
vn 0.0848 -0.7360 0.6716
vn 0.1190 0.3145 0.9418
vn -0.0000 -0.7360 0.6770
vn -0.0000 0.3145 0.9492
vn -0.0848 -0.7360 0.6716
vn -0.1190 0.3145 0.9418
vn -0.1684 -0.7360 0.6557
vn -0.2361 0.3145 0.9194
vn -0.2492 -0.7360 0.6294
vn -0.3494 0.3145 0.8826
vn -0.3261 -0.7360 0.5932
vn -0.4573 0.3145 0.8318
vn -0.3979 -0.7360 0.5477
vn -0.5580 0.3145 0.7680
vn -0.4634 -0.7360 0.4935
vn -0.6498 0.3145 0.6920
vn -0.5216 -0.7360 0.4315
vn -0.7314 0.3145 0.6051
vn -0.5716 -0.7360 0.3627
vn -0.8015 0.3145 0.5086
vn -0.6125 -0.7360 0.2882
vn -0.8589 0.3145 0.4042
vn -0.6438 -0.7360 0.2092
vn -0.9028 0.3145 0.2933
vn -0.6650 -0.7360 0.1269
vn -0.9324 0.3145 0.1779
vn -0.6756 -0.7360 0.0425
vn -0.9474 0.3145 0.0596
vn -0.6756 -0.7360 -0.0425
vn -0.9474 0.3145 -0.0596
vn -0.6650 -0.7360 -0.1269
vn -0.9324 0.3145 -0.1779
vn -0.6438 -0.7360 -0.2092
vn -0.9028 0.3145 -0.2933
vn -0.6125 -0.7360 -0.2882
vn -0.8589 0.3145 -0.4042
vn -0.5716 -0.7360 -0.3627
vn -0.8015 0.3145 -0.5086
vn -0.5216 -0.7360 -0.4315
vn -0.7314 0.3145 -0.6051
vn -0.4634 -0.7360 -0.4935
vn -0.6498 0.3145 -0.6920
vn -0.3979 -0.7360 -0.5477
vn -0.5580 0.3145 -0.7680
vn -0.3261 -0.7360 -0.5932
vn -0.4573 0.3145 -0.8318
vn -0.2492 -0.7360 -0.6294
vn -0.3494 0.3145 -0.8826
vn -0.1684 -0.7360 -0.6557
vn -0.2361 0.3145 -0.9194
vn -0.0848 -0.7360 -0.6716
vn -0.1190 0.3145 -0.9418
vn 0.0503 0.9159 -0.3983
vn -0.0000 0.9159 -0.4015
vn 0.0998 0.9159 -0.3889
vn 0.1478 0.9159 -0.3733
vn 0.1934 0.9159 -0.3518
vn 0.2360 0.9159 -0.3248
vn 0.2748 0.9159 -0.2927
vn 0.3093 0.9159 -0.2559
vn 0.3390 0.9159 -0.2151
vn 0.3633 0.9159 -0.1709
vn 0.3818 0.9159 -0.1241
vn 0.3944 0.9159 -0.0752
vn 0.4007 0.9159 -0.0252
vn 0.4007 0.9159 0.0252
vn 0.3944 0.9159 0.0752
vn 0.3818 0.9159 0.1241
vn 0.3633 0.9159 0.1709
vn 0.3390 0.9159 0.2151
vn 0.3093 0.9159 0.2559
vn 0.2748 0.9159 0.2927
vn 0.2360 0.9159 0.3248
vn 0.1934 0.9159 0.3518
vn 0.1478 0.9159 0.3733
vn 0.0998 0.9159 0.3889
vn 0.0503 0.9159 0.3983
vn -0.0000 0.9159 0.4015
vn -0.0503 0.9159 0.3983
vn -0.0998 0.9159 0.3889
vn -0.1478 0.9159 0.3733
vn -0.1934 0.9159 0.3518
vn -0.2360 0.9159 0.3248
vn -0.2748 0.9159 0.2927
vn -0.3093 0.9159 0.2559
vn -0.3390 0.9159 0.2151
vn -0.3633 0.9159 0.1709
vn -0.3818 0.9159 0.1241
vn -0.3944 0.9159 0.0752
vn -0.4007 0.9159 0.0252
vn -0.4007 0.9159 -0.0252
vn -0.3944 0.9159 -0.0752
vn -0.3818 0.9159 -0.1241
vn -0.3633 0.9159 -0.1709
vn -0.3390 0.9159 -0.2151
vn -0.3093 0.9159 -0.2559
vn -0.2748 0.9159 -0.2927
vn -0.2360 0.9159 -0.3248
vn -0.1934 0.9159 -0.3518
vn -0.1478 0.9159 -0.3733
vn -0.0998 0.9159 -0.3889
vn -0.0503 0.9159 -0.3983
vt 0.576242 0.390782
vt 0.609602 0.001210
vt 0.594891 0.391396
vt 0.612792 0.392305
vt 0.633062 0.002401
vt 0.629664 0.393494
vt 0.655173 0.003960
vt 0.645240 0.394945
vt 0.675586 0.005861
vt 0.659275 0.396635
vt 0.572567 0.403631
vt 0.621615 0.790881
vt 0.606051 0.792458
vt 0.592964 0.401565
vt 0.638477 0.789555
vt 0.615062 0.399828
vt 0.656370 0.788502
vt 0.638511 0.398448
vt 0.675013 0.787738
vt 0.662943 0.397446
vt 0.694111 0.787274
vt 0.687972 0.396839
vt 0.713364 0.787119
vt 0.738238 0.396839
vt 0.732467 0.787274
vt 0.751119 0.787738
vt 0.762683 0.397446
vt 0.769027 0.788502
vt 0.808275 0.399828
vt 0.785908 0.789555
vt 0.801495 0.790881
vt 0.828702 0.401565
vt 0.815544 0.792458
vt 0.281908 0.404775
vt 0.334103 0.791613
vt 0.318553 0.793316
vt 0.302288 0.402542
vt 0.350953 0.790150
vt 0.324371 0.400626
vt 0.368838 0.788951
vt 0.372231 0.397855
vt 0.387474 0.788036
vt 0.406567 0.787417
vt 0.397254 0.397044
vt 0.425818 0.787105
vt 0.422483 0.396635
vt 0.444922 0.787105
vt 0.447519 0.396635
vt 0.463578 0.787417
vt 0.495444 0.397855
vt 0.481491 0.788036
vt 0.498380 0.788951
vt 0.517577 0.399055
vt 0.513978 0.790150
vt 0.556445 0.402542
vt 0.528038 0.791613
vt 0.572567 0.404774
vt 0.540340 0.793316
vt -0.000000 0.408838
vt 0.045617 0.796088
vt 0.031569 0.797665
vt 0.018410 0.406772
vt 0.061205 0.794762
vt 0.060961 0.403655
vt 0.078086 0.793709
vt 0.095993 0.792945
vt 0.108875 0.402046
vt 0.114646 0.792481
vt 0.133749 0.792326
vt 0.133910 0.401842
vt 0.153002 0.792481
vt 0.159141 0.402046
vt 0.172100 0.792945
vt 0.184170 0.402653
vt 0.190743 0.793709
vt 0.208602 0.403655
vt 0.208636 0.794762
vt 0.232051 0.405035
vt 0.225498 0.796088
vt 0.254149 0.406772
vt 0.241062 0.797665
vt 0.401049 0.008076
vt 0.449789 0.394945
vt 0.435754 0.396635
vt 0.419442 0.005861
vt 0.465365 0.393494
vt 0.461966 0.002401
vt 0.482237 0.392305
vt 0.485426 0.001210
vt 0.500138 0.391396
vt 0.518786 0.390782
vt 0.509865 0.000406
vt 0.537888 0.390473
vt 0.030881 0.308580
vt 0.053961 0.322169
vt 0.045712 0.328993
vt 0.534898 0.000000
vt 0.557141 0.390473
vt 0.560130 0.000000
vt 0.701180 0.105937
vt 0.951940 0.041553
vt 0.903428 0.295860
vt 0.108887 0.367608
vt 0.088718 0.047033
vt 0.387371 0.165278
vt 0.250492 0.395530
vt 0.270548 0.377779
vt 0.274489 0.387733
vt 0.401049 0.213537
vt 0.387371 0.236564
vt 0.390365 0.212865
vt 0.297319 0.024853
vt 0.312330 0.047033
vt 0.292161 0.034234
vt 0.150558 0.395530
vt 0.176684 0.389637
vt 0.175343 0.400258
vt 0.082426 0.038373
vt 0.108887 0.034234
vt -0.000000 0.213537
vt 0.013678 0.236564
vt 0.003162 0.238570
vt 0.126561 0.387733
vt 0.153220 0.385161
vt 0.355337 0.328993
vt 0.361129 0.302844
vt 0.370168 0.308580
vt 0.370168 0.093262
vt 0.372637 0.119931
vt 0.361129 0.098998
vt 0.175342 0.001584
vt 0.200524 0.010705
vt 0.176684 0.012205
vt 0.009437 0.138833
vt 0.028412 0.119931
vt 0.019619 0.142141
vt 0.070313 0.339582
vt 0.062985 0.347386
vt 0.292162 0.367608
vt 0.297319 0.376989
vt 0.390365 0.188977
vt 0.401049 0.188305
vt 0.274488 0.014109
vt 0.270547 0.024063
vt 0.062985 0.054456
vt 0.070313 0.062260
vt 0.019619 0.259701
vt 0.009437 0.263009
vt 0.200525 0.391137
vt 0.200525 0.401842
vt 0.372637 0.281911
vt 0.382323 0.286469
vt 0.355337 0.072849
vt 0.347088 0.079673
vt 0.150557 0.006312
vt 0.153220 0.016681
vt 0.003162 0.163272
vt 0.013678 0.165278
vt 0.088719 0.354809
vt 0.082426 0.363470
vt 0.312330 0.354809
vt 0.318623 0.363469
vt 0.397887 0.163272
vt 0.250491 0.006312
vt 0.247829 0.016681
vt 0.045712 0.072849
vt 0.053961 0.079673
vt 0.028412 0.281911
vt 0.018726 0.286469
vt 0.224365 0.389637
vt 0.225707 0.400258
vt 0.381430 0.259701
vt 0.391612 0.263009
vt 0.338064 0.054456
vt 0.330736 0.062260
vt 0.126560 0.014109
vt 0.130501 0.024063
vt -0.000000 0.188305
vt 0.010684 0.188977
vt 0.103730 0.376989
vt 0.330736 0.339582
vt 0.338064 0.347386
vt 0.391612 0.138833
vt 0.381430 0.142141
vt 0.225707 0.001584
vt 0.224365 0.012205
vt 0.030881 0.093262
vt 0.039920 0.098998
vt 0.039920 0.302844
vt 0.247829 0.385161
vt 0.397887 0.238570
vt 0.318623 0.038372
vt 0.103730 0.024853
vt 0.010684 0.212865
vt 0.130502 0.377779
vt 0.347088 0.322169
vt 0.382323 0.115373
vt 0.200524 -0.000000
vt 0.018726 0.115373
vt 0.585163 0.000406
vt 0.693979 0.008076
vt 0.713203 0.396635
vt 0.786152 0.398448
vt 0.847113 0.403631
vt 0.347808 0.399055
vt 0.471968 0.397044
vt 0.538019 0.400626
vt 0.038838 0.405035
vt 0.084430 0.402653
vt 0.274546 0.408838
vt 0.439855 0.003960
vt 0.696392 0.182041
vt 0.693979 0.162939
vt 0.693979 0.143686
vt 0.696392 0.124585
vt 0.708268 0.088035
vt 0.717543 0.071164
vt 0.728860 0.055588
vt 0.742040 0.041553
vt 0.756875 0.029280
vt 0.773131 0.018964
vt 0.790551 0.010766
vt 0.808862 0.004817
vt 0.827774 0.001209
vt 0.846990 -0.000000
vt 0.866205 0.001209
vt 0.885117 0.004817
vt 0.903428 0.010766
vt 0.920849 0.018964
vt 0.937105 0.029280
vt 0.965119 0.055588
vt 0.976436 0.071164
vt 0.985711 0.088035
vt 0.992799 0.105937
vt 0.997587 0.124585
vt 1.000000 0.143686
vt 1.000000 0.162940
vt 0.997587 0.182041
vt 0.992799 0.200689
vt 0.985711 0.218590
vt 0.976436 0.235462
vt 0.965119 0.251038
vt 0.951939 0.265073
vt 0.937105 0.277346
vt 0.920849 0.287662
vt 0.885117 0.301809
vt 0.866205 0.305417
vt 0.846990 0.306626
vt 0.827774 0.305417
vt 0.808862 0.301809
vt 0.790551 0.295860
vt 0.773130 0.287662
vt 0.756874 0.277346
vt 0.742040 0.265073
vt 0.728860 0.251038
vt 0.717543 0.235462
vt 0.708268 0.218590
vt 0.701180 0.200689
s 1
f 1/1/1 4/2/4 3/3/3
f 4/2/4 5/4/5 3/3/3
f 6/5/6 7/6/7 5/4/5
f 8/7/8 9/8/9 7/6/7
f 10/9/10 11/10/11 9/8/9
f 12/11/12 13/12/13 11/13/11
f 14/14/14 15/15/15 13/12/13
f 16/16/16 17/17/17 15/15/15
f 18/18/18 19/19/19 17/17/17
f 20/20/20 21/21/21 19/19/19
f 22/22/22 23/23/23 21/21/21
f 23/23/23 26/24/26 25/25/25
f 26/24/26 27/26/27 25/25/25
f 28/27/28 29/28/29 27/26/27
f 29/28/29 32/29/32 31/30/31
f 32/29/32 33/31/33 31/30/31
f 34/32/34 35/33/35 33/31/33
f 36/34/36 37/35/37 35/36/35
f 38/37/38 39/38/39 37/35/37
f 40/39/40 41/40/41 39/38/39
f 41/40/41 44/41/44 43/42/43
f 44/41/44 45/43/45 43/42/43
f 46/44/46 47/45/47 45/43/45
f 48/46/48 49/47/49 47/45/47
f 50/48/50 51/49/51 49/47/49
f 51/49/51 54/50/54 53/51/53
f 54/50/54 55/52/55 53/51/53
f 56/53/56 57/54/57 55/52/55
f 57/54/57 60/55/60 59/56/59
f 59/56/59 62/57/62 61/58/61
f 62/59/62 63/60/63 61/61/61
f 64/62/64 65/63/65 63/60/63
f 65/63/65 68/64/68 67/65/67
f 68/64/68 69/66/69 67/65/67
f 69/66/69 72/67/72 71/68/71
f 72/67/72 73/69/73 71/68/71
f 74/70/74 75/71/75 73/69/73
f 76/72/76 77/73/77 75/71/75
f 78/74/78 79/75/79 77/73/77
f 80/76/80 81/77/81 79/75/79
f 82/78/82 83/79/83 81/77/81
f 84/80/84 85/81/85 83/79/83
f 86/82/86 87/83/87 85/84/85
f 88/85/88 89/86/89 87/83/87
f 89/86/89 92/87/92 91/88/91
f 91/88/91 94/89/94 93/90/93
f 94/89/94 95/91/95 93/90/93
f 96/92/96 97/93/97 95/91/95
f 90/94/90 146/95/146 92/96/92
f 98/97/98 99/98/99 97/93/97
f 100/99/100 1/1/1 99/98/99
f 7/100/7 39/101/39 71/102/71
f 149/103/149 133/104/133 117/105/117
f 10/106/10 106/107/106 12/108/12
f 30/109/30 114/110/114 115/111/115
f 48/112/48 123/113/123 124/114/124
f 2/115/2 101/116/101 4/117/4
f 66/118/66 132/119/132 133/104/133
f 82/120/82 142/121/142 84/122/84
f 100/123/100 102/124/102 2/115/2
f 20/125/20 111/126/111 22/127/22
f 40/128/40 119/129/119 120/130/120
f 58/131/58 128/132/128 129/133/129
f 76/134/76 137/135/137 138/136/138
f 92/96/92 147/137/147 94/138/94
f 12/108/12 107/139/107 14/140/14
f 30/109/30 116/141/116 32/142/32
f 50/143/50 124/114/124 125/144/125
f 68/145/68 133/104/133 134/146/134
f 84/122/84 143/147/143 86/148/86
f 4/117/4 103/149/103 6/150/6
f 22/127/22 112/151/112 24/152/24
f 42/153/42 120/130/120 121/154/121
f 60/155/60 129/133/129 130/156/130
f 78/157/78 138/136/138 139/158/139
f 94/138/94 148/159/148 96/160/96
f 14/140/14 108/161/108 16/162/16
f 34/163/34 116/141/116 117/105/117
f 52/164/52 125/144/125 126/165/126
f 70/166/70 134/146/134 135/167/135
f 86/148/86 144/168/144 88/169/88
f 6/150/6 104/170/104 8/171/8
f 24/152/24 113/172/113 26/173/26
f 44/174/44 121/154/121 122/175/122
f 62/176/62 130/156/130 131/177/131
f 80/178/80 139/158/139 140/179/140
f 96/160/96 149/103/149 98/180/98
f 16/162/16 109/181/109 18/182/18
f 36/183/36 117/105/117 118/184/118
f 54/185/54 126/165/126 127/186/127
f 72/187/72 135/167/135 136/188/136
f 88/169/88 145/189/145 90/94/90
f 8/171/8 105/190/105 10/106/10
f 26/173/26 114/110/114 28/191/28
f 46/192/46 122/175/122 123/113/123
f 64/193/64 131/177/131 132/119/132
f 80/178/80 141/194/141 82/120/82
f 98/180/98 150/195/150 100/123/100
f 18/182/18 110/196/110 20/125/20
f 38/197/38 118/184/118 119/129/119
f 56/198/56 127/186/127 128/132/128
f 74/199/74 136/188/136 137/135/137
f 1/1/1 2/200/2 4/2/4
f 4/2/4 6/5/6 5/4/5
f 6/5/6 8/7/8 7/6/7
f 8/7/8 10/9/10 9/8/9
f 10/9/10 12/201/12 11/10/11
f 12/11/12 14/14/14 13/12/13
f 14/14/14 16/16/16 15/15/15
f 16/16/16 18/18/18 17/17/17
f 18/18/18 20/20/20 19/19/19
f 20/20/20 22/22/22 21/21/21
f 22/22/22 24/202/24 23/23/23
f 23/23/23 24/202/24 26/24/26
f 26/24/26 28/27/28 27/26/27
f 28/27/28 30/203/30 29/28/29
f 29/28/29 30/203/30 32/29/32
f 32/29/32 34/32/34 33/31/33
f 34/32/34 36/204/36 35/33/35
f 36/34/36 38/37/38 37/35/37
f 38/37/38 40/39/40 39/38/39
f 40/39/40 42/205/42 41/40/41
f 41/40/41 42/205/42 44/41/44
f 44/41/44 46/44/46 45/43/45
f 46/44/46 48/46/48 47/45/47
f 48/46/48 50/48/50 49/47/49
f 50/48/50 52/206/52 51/49/51
f 51/49/51 52/206/52 54/50/54
f 54/50/54 56/53/56 55/52/55
f 56/53/56 58/207/58 57/54/57
f 57/54/57 58/207/58 60/55/60
f 59/56/59 60/55/60 62/57/62
f 62/59/62 64/62/64 63/60/63
f 64/62/64 66/208/66 65/63/65
f 65/63/65 66/208/66 68/64/68
f 68/64/68 70/209/70 69/66/69
f 69/66/69 70/209/70 72/67/72
f 72/67/72 74/70/74 73/69/73
f 74/70/74 76/72/76 75/71/75
f 76/72/76 78/74/78 77/73/77
f 78/74/78 80/76/80 79/75/79
f 80/76/80 82/78/82 81/77/81
f 82/78/82 84/80/84 83/79/83
f 84/80/84 86/210/86 85/81/85
f 86/82/86 88/85/88 87/83/87
f 88/85/88 90/211/90 89/86/89
f 89/86/89 90/211/90 92/87/92
f 91/88/91 92/87/92 94/89/94
f 94/89/94 96/92/96 95/91/95
f 96/92/96 98/97/98 97/93/97
f 90/94/90 145/189/145 146/95/146
f 98/97/98 100/99/100 99/98/99
f 100/99/100 2/200/2 1/1/1
f 99/212/99 1/213/1 3/214/3
f 3/214/3 5/215/5 7/100/7
f 7/100/7 9/216/9 11/217/11
f 11/217/11 13/218/13 15/219/15
f 15/219/15 17/220/17 19/221/19
f 19/221/19 21/222/21 23/223/23
f 23/223/23 25/224/25 27/225/27
f 27/225/27 29/226/29 31/227/31
f 31/227/31 33/228/33 35/229/35
f 35/229/35 37/230/37 39/101/39
f 39/101/39 41/231/41 43/232/43
f 43/232/43 45/233/45 47/234/47
f 47/234/47 49/235/49 51/236/51
f 51/236/51 53/237/53 55/238/55
f 55/238/55 57/239/57 59/240/59
f 59/240/59 61/241/61 63/242/63
f 63/242/63 65/243/65 67/244/67
f 67/244/67 69/245/69 71/102/71
f 71/102/71 73/246/73 75/247/75
f 75/247/75 77/248/77 79/249/79
f 79/249/79 81/250/81 83/251/83
f 83/251/83 85/252/85 87/253/87
f 87/253/87 89/254/89 91/255/91
f 91/255/91 93/256/93 95/257/95
f 95/257/95 97/258/97 99/212/99
f 99/212/99 3/214/3 7/100/7
f 7/100/7 11/217/11 15/219/15
f 15/219/15 19/221/19 23/223/23
f 23/223/23 27/225/27 31/227/31
f 31/227/31 35/229/35 39/101/39
f 39/101/39 43/232/43 47/234/47
f 47/234/47 51/236/51 55/238/55
f 55/238/55 59/240/59 63/242/63
f 63/242/63 67/244/67 71/102/71
f 71/102/71 75/247/75 79/249/79
f 79/249/79 83/251/83 87/253/87
f 87/253/87 91/255/91 95/257/95
f 95/257/95 99/212/99 7/100/7
f 7/100/7 15/219/15 23/223/23
f 23/223/23 31/227/31 39/101/39
f 39/101/39 47/234/47 55/238/55
f 55/238/55 63/242/63 71/102/71
f 71/102/71 79/249/79 87/253/87
f 87/253/87 95/257/95 7/100/7
f 7/100/7 23/223/23 39/101/39
f 39/101/39 55/238/55 71/102/71
f 71/102/71 87/253/87 7/100/7
f 103/149/103 101/116/101 102/124/102
f 102/124/102 150/195/150 149/103/149
f 149/103/149 148/159/148 147/137/147
f 147/137/147 146/95/146 145/189/145
f 145/189/145 144/168/144 143/147/143
f 143/147/143 142/121/142 141/194/141
f 141/194/141 140/179/140 139/158/139
f 139/158/139 138/136/138 137/135/137
f 137/135/137 136/188/136 135/167/135
f 135/167/135 134/146/134 133/104/133
f 133/104/133 132/119/132 131/177/131
f 131/177/131 130/156/130 129/133/129
f 129/133/129 128/132/128 127/186/127
f 127/186/127 126/165/126 125/144/125
f 125/144/125 124/114/124 123/113/123
f 123/113/123 122/175/122 121/154/121
f 121/154/121 120/130/120 119/129/119
f 119/129/119 118/184/118 117/105/117
f 117/105/117 116/141/116 115/111/115
f 115/111/115 114/110/114 113/172/113
f 113/172/113 112/151/112 111/126/111
f 111/126/111 110/196/110 109/181/109
f 109/181/109 108/161/108 107/139/107
f 107/139/107 106/107/106 105/190/105
f 105/190/105 104/170/104 103/149/103
f 103/149/103 102/124/102 149/103/149
f 149/103/149 147/137/147 145/189/145
f 145/189/145 143/147/143 141/194/141
f 141/194/141 139/158/139 137/135/137
f 137/135/137 135/167/135 133/104/133
f 133/104/133 131/177/131 129/133/129
f 129/133/129 127/186/127 125/144/125
f 125/144/125 123/113/123 121/154/121
f 121/154/121 119/129/119 117/105/117
f 117/105/117 115/111/115 113/172/113
f 113/172/113 111/126/111 109/181/109
f 109/181/109 107/139/107 105/190/105
f 105/190/105 103/149/103 149/103/149
f 149/103/149 145/189/145 141/194/141
f 141/194/141 137/135/137 133/104/133
f 133/104/133 129/133/129 125/144/125
f 125/144/125 121/154/121 117/105/117
f 117/105/117 113/172/113 109/181/109
f 109/181/109 105/190/105 149/103/149
f 149/103/149 141/194/141 133/104/133
f 133/104/133 125/144/125 117/105/117
f 117/105/117 109/181/109 149/103/149
f 10/106/10 105/190/105 106/107/106
f 30/109/30 28/191/28 114/110/114
f 48/112/48 46/192/46 123/113/123
f 2/115/2 102/124/102 101/116/101
f 66/118/66 64/193/64 132/119/132
f 82/120/82 141/194/141 142/121/142
f 100/123/100 150/195/150 102/124/102
f 20/125/20 110/196/110 111/126/111
f 40/128/40 38/197/38 119/129/119
f 58/131/58 56/198/56 128/132/128
f 76/134/76 74/199/74 137/135/137
f 92/96/92 146/95/146 147/137/147
f 12/108/12 106/107/106 107/139/107
f 30/109/30 115/111/115 116/141/116
f 50/143/50 48/112/48 124/114/124
f 68/145/68 66/118/66 133/104/133
f 84/122/84 142/121/142 143/147/143
f 4/117/4 101/116/101 103/149/103
f 22/127/22 111/126/111 112/151/112
f 42/153/42 40/128/40 120/130/120
f 60/155/60 58/131/58 129/133/129
f 78/157/78 76/134/76 138/136/138
f 94/138/94 147/137/147 148/159/148
f 14/140/14 107/139/107 108/161/108
f 34/163/34 32/142/32 116/141/116
f 52/164/52 50/143/50 125/144/125
f 70/166/70 68/145/68 134/146/134
f 86/148/86 143/147/143 144/168/144
f 6/150/6 103/149/103 104/170/104
f 24/152/24 112/151/112 113/172/113
f 44/174/44 42/153/42 121/154/121
f 62/176/62 60/155/60 130/156/130
f 80/178/80 78/157/78 139/158/139
f 96/160/96 148/159/148 149/103/149
f 16/162/16 108/161/108 109/181/109
f 36/183/36 34/163/34 117/105/117
f 54/185/54 52/164/52 126/165/126
f 72/187/72 70/166/70 135/167/135
f 88/169/88 144/168/144 145/189/145
f 8/171/8 104/170/104 105/190/105
f 26/173/26 113/172/113 114/110/114
f 46/192/46 44/174/44 122/175/122
f 64/193/64 62/176/62 131/177/131
f 80/178/80 140/179/140 141/194/141
f 98/180/98 149/103/149 150/195/150
f 18/182/18 109/181/109 110/196/110
f 38/197/38 36/183/36 118/184/118
f 56/198/56 54/185/54 127/186/127
f 74/199/74 72/187/72 136/188/136
