# Blender 5.1.1
# www.blender.org
o Tappo
v 2.413721 2.937255 -1.247288
v 2.413721 3.145384 -1.272853
v 2.424040 2.937255 -1.246639
v 2.427244 3.145384 -1.272003
v 2.434196 2.937255 -1.244702
v 2.440553 3.145384 -1.269464
v 2.444028 2.937255 -1.241507
v 2.453439 3.145384 -1.265277
v 2.453383 2.937255 -1.237105
v 2.465699 3.145384 -1.259508
v 2.462113 2.937255 -1.231565
v 2.477140 3.145384 -1.252247
v 2.470079 2.937255 -1.224974
v 2.487580 3.145384 -1.243611
v 2.477156 2.937255 -1.217438
v 2.496855 3.145384 -1.233734
v 2.483233 2.937255 -1.209073
v 2.504819 3.145384 -1.222772
v 2.488214 2.937255 -1.200013
v 2.511347 3.145384 -1.210898
v 2.492020 2.937255 -1.190400
v 2.516335 3.145384 -1.198300
v 2.494591 2.937255 -1.180386
v 2.519704 3.145384 -1.185177
v 2.495887 2.937255 -1.170129
v 2.521402 3.145384 -1.171734
v 2.495887 2.937255 -1.159790
v 2.521402 3.145384 -1.158185
v 2.494591 2.937255 -1.149533
v 2.519704 3.145384 -1.144742
v 2.492020 2.937255 -1.139518
v 2.516335 3.145384 -1.131618
v 2.488214 2.937255 -1.129906
v 2.511347 3.145384 -1.119020
v 2.483233 2.937255 -1.120845
v 2.504819 3.145384 -1.107147
v 2.477156 2.937255 -1.112481
v 2.496855 3.145384 -1.096185
v 2.470079 2.937255 -1.104944
v 2.487580 3.145384 -1.086308
v 2.462113 2.937255 -1.098354
v 2.477140 3.145384 -1.077671
v 2.453383 2.937255 -1.092814
v 2.465699 3.145384 -1.070411
v 2.444028 2.937255 -1.088412
v 2.453439 3.145384 -1.064642
v 2.434196 2.937255 -1.085217
v 2.440553 3.145384 -1.060455
v 2.424040 2.937255 -1.083280
v 2.427244 3.145384 -1.057916
v 2.413721 2.937255 -1.082631
v 2.413721 3.145384 -1.057065
v 2.403403 2.937255 -1.083280
v 2.400198 3.145384 -1.057916
v 2.393247 2.937255 -1.085217
v 2.386889 3.145384 -1.060455
v 2.383414 2.937255 -1.088412
v 2.374003 3.145384 -1.064642
v 2.374059 2.937255 -1.092814
v 2.361743 3.145384 -1.070411
v 2.365330 2.937255 -1.098354
v 2.350302 3.145384 -1.077671
v 2.357363 2.937255 -1.104944
v 2.339863 3.145384 -1.086308
v 2.350286 2.937255 -1.112481
v 2.330587 3.145384 -1.096185
v 2.344209 2.937255 -1.120845
v 2.322623 3.145384 -1.107147
v 2.339228 2.937255 -1.129906
v 2.316096 3.145384 -1.119020
v 2.335422 2.937255 -1.139518
v 2.311108 3.145384 -1.131618
v 2.332851 2.937255 -1.149533
v 2.307738 3.145384 -1.144742
v 2.331555 2.937255 -1.159790
v 2.306040 3.145384 -1.158185
v 2.331555 2.937255 -1.170129
v 2.306040 3.145384 -1.171734
v 2.332851 2.937255 -1.180386
v 2.307738 3.145384 -1.185177
v 2.335422 2.937255 -1.190400
v 2.311108 3.145384 -1.198300
v 2.339228 2.937255 -1.200013
v 2.316096 3.145384 -1.210898
v 2.344209 2.937255 -1.209073
v 2.322623 3.145384 -1.222772
v 2.350286 2.937255 -1.217438
v 2.330587 3.145384 -1.233734
v 2.357363 2.937255 -1.224974
v 2.339863 3.145384 -1.243611
v 2.365330 2.937255 -1.231565
v 2.350302 3.145384 -1.252247
v 2.374059 2.937255 -1.237105
v 2.361743 3.145384 -1.259508
v 2.383414 2.937255 -1.241507
v 2.374003 3.145384 -1.265277
v 2.393247 2.937255 -1.244702
v 2.386889 3.145384 -1.269464
v 2.403403 2.937255 -1.246639
v 2.400198 3.145384 -1.272003
v 2.426523 3.151278 -1.266299
v 2.413721 3.151278 -1.267105
v 2.439124 3.151278 -1.263896
v 2.451323 3.151278 -1.259932
v 2.462930 3.151278 -1.254470
v 2.473761 3.151278 -1.247597
v 2.483644 3.151278 -1.239420
v 2.492425 3.151278 -1.230069
v 2.499965 3.151278 -1.219692
v 2.506145 3.151278 -1.208451
v 2.510867 3.151278 -1.196524
v 2.514057 3.151278 -1.184099
v 2.515665 3.151278 -1.171373
v 2.515665 3.151278 -1.158546
v 2.514057 3.151278 -1.145819
v 2.510867 3.151278 -1.133395
v 2.506145 3.151278 -1.121468
v 2.499965 3.151278 -1.110227
v 2.492425 3.151278 -1.099849
v 2.483644 3.151278 -1.090499
v 2.473761 3.151278 -1.082322
v 2.462930 3.151278 -1.075449
v 2.451323 3.151278 -1.069987
v 2.439124 3.151278 -1.066023
v 2.426523 3.151278 -1.063619
v 2.413721 3.151278 -1.062814
v 2.400919 3.151278 -1.063619
v 2.388319 3.151278 -1.066023
v 2.376119 3.151278 -1.069987
v 2.364512 3.151278 -1.075449
v 2.353682 3.151278 -1.082322
v 2.343798 3.151278 -1.090499
v 2.335017 3.151278 -1.099849
v 2.327477 3.151278 -1.110227
v 2.321297 3.151278 -1.121468
v 2.316575 3.151278 -1.133395
v 2.313385 3.151278 -1.145819
v 2.311777 3.151278 -1.158546
v 2.311777 3.151278 -1.171373
v 2.313385 3.151278 -1.184099
v 2.316575 3.151278 -1.196524
v 2.321297 3.151278 -1.208451
v 2.327477 3.151278 -1.219692
v 2.335017 3.151278 -1.230069
v 2.343798 3.151278 -1.239420
v 2.353682 3.151278 -1.247597
v 2.364512 3.151278 -1.254470
v 2.376119 3.151278 -1.259932
v 2.388319 3.151278 -1.263896
v 2.400919 3.151278 -1.266299
vn 0.0623 -0.1217 -0.9906
vn 0.1860 -0.1217 -0.9750
vn 0.3067 -0.1217 -0.9440
vn 0.4226 -0.1217 -0.8981
vn 0.5318 -0.1217 -0.8381
vn 0.6327 -0.1217 -0.7648
vn 0.7236 -0.1217 -0.6795
vn 0.8030 -0.1217 -0.5834
vn 0.8698 -0.1217 -0.4782
vn 0.9229 -0.1217 -0.3654
vn 0.9614 -0.1217 -0.2468
vn 0.9847 -0.1217 -0.1244
vn 0.9926 -0.1217 -0.0000
vn 0.9847 -0.1217 0.1244
vn 0.9614 -0.1217 0.2468
vn 0.9229 -0.1217 0.3654
vn 0.8698 -0.1217 0.4782
vn 0.8030 -0.1217 0.5834
vn 0.7236 -0.1217 0.6795
vn 0.6327 -0.1217 0.7648
vn 0.5318 -0.1217 0.8381
vn 0.4226 -0.1217 0.8981
vn 0.3067 -0.1217 0.9440
vn 0.1860 -0.1217 0.9750
vn 0.0623 -0.1217 0.9906
vn -0.0623 -0.1217 0.9906
vn -0.1860 -0.1217 0.9750
vn -0.3067 -0.1217 0.9440
vn -0.4226 -0.1217 0.8981
vn -0.5318 -0.1217 0.8381
vn -0.6327 -0.1217 0.7648
vn -0.7236 -0.1217 0.6795
vn -0.8030 -0.1217 0.5834
vn -0.8698 -0.1217 0.4782
vn -0.9229 -0.1217 0.3654
vn -0.9614 -0.1217 0.2468
vn -0.9847 -0.1217 0.1244
vn -0.9926 -0.1217 -0.0000
vn -0.9847 -0.1217 -0.1244
vn -0.9614 -0.1217 -0.2468
vn -0.9229 -0.1217 -0.3654
vn -0.8698 -0.1217 -0.4782
vn -0.8030 -0.1217 -0.5834
vn -0.7236 -0.1217 -0.6795
vn -0.6327 -0.1217 -0.7648
vn -0.5318 -0.1217 -0.8381
vn -0.4226 -0.1217 -0.8981
vn -0.3067 -0.1217 -0.9440
vn -0.4568 0.6975 -0.5521
vn -0.1860 -0.1217 -0.9750
vn -0.0623 -0.1217 -0.9906
vn -0.0000 -1.0000 -0.0000
vn -0.0000 1.0000 -0.0000
vn 0.3839 0.6975 -0.6050
vn 0.7109 0.6975 0.0898
vn 0.2214 0.6975 0.6815
vn 0.0450 0.6975 -0.7151
vn -0.5223 0.6975 0.4905
vn -0.6662 0.6975 -0.2638
vn -0.0450 0.6975 -0.7151
vn 0.6662 0.6975 -0.2638
vn 0.5223 0.6975 0.4905
vn -0.2214 0.6975 0.6815
vn -0.7109 0.6975 0.0898
vn -0.3839 0.6975 -0.6050
vn 0.4567 0.6975 -0.5521
vn 0.6940 0.6975 0.1782
vn 0.1343 0.6975 0.7039
vn -0.5797 0.6975 0.4212
vn -0.6279 0.6975 -0.3452
vn 0.1343 0.6975 -0.7039
vn 0.6940 0.6975 -0.1782
vn 0.4567 0.6975 0.5521
vn -0.3051 0.6975 0.6484
vn -0.7166 0.6975 -0.0000
vn -0.3051 0.6975 -0.6484
vn 0.5223 0.6975 -0.4905
vn 0.6662 0.6975 0.2638
vn 0.0450 0.6975 0.7151
vn -0.6279 0.6975 0.3452
vn -0.5797 0.6975 -0.4212
vn 0.2214 0.6975 -0.6815
vn 0.7109 0.6975 -0.0898
vn 0.3839 0.6975 0.6050
vn -0.3839 0.6975 0.6050
vn -0.7109 0.6975 -0.0898
vn -0.2214 0.6975 -0.6815
vn 0.5797 0.6975 -0.4212
vn 0.6279 0.6975 0.3452
vn -0.0450 0.6975 0.7151
vn -0.6662 0.6975 0.2638
vn -0.5223 0.6975 -0.4905
vn 0.3051 0.6975 -0.6484
vn 0.7166 0.6975 -0.0000
vn 0.3051 0.6975 0.6484
vn -0.4567 0.6975 0.5521
vn -0.6940 0.6975 -0.1782
vn -0.1343 0.6975 -0.7039
vn 0.6279 0.6975 -0.3452
vn 0.5797 0.6975 0.4212
vn -0.1343 0.6975 0.7039
vn -0.6940 0.6975 0.1782
vn -0.4567 0.6975 -0.5521
vt 0.576242 0.390782
vt 0.609602 0.001210
vt 0.594891 0.391396
vt 0.612792 0.392305
vt 0.633062 0.002401
vt 0.629664 0.393494
vt 0.655173 0.003960
vt 0.645240 0.394945
vt 0.675586 0.005861
vt 0.659275 0.396635
vt 0.572567 0.403631
vt 0.621615 0.790881
vt 0.606051 0.792458
vt 0.592964 0.401565
vt 0.638477 0.789555
vt 0.615062 0.399828
vt 0.656370 0.788502
vt 0.638511 0.398448
vt 0.675013 0.787738
vt 0.662943 0.397446
vt 0.694111 0.787274
vt 0.687972 0.396839
vt 0.713364 0.787119
vt 0.738238 0.396839
vt 0.732467 0.787274
vt 0.751119 0.787738
vt 0.762683 0.397446
vt 0.769027 0.788502
vt 0.808275 0.399828
vt 0.785908 0.789555
vt 0.801495 0.790881
vt 0.828702 0.401565
vt 0.815544 0.792458
vt 0.281908 0.404775
vt 0.334103 0.791613
vt 0.318553 0.793316
vt 0.302288 0.402542
vt 0.350953 0.790150
vt 0.324371 0.400626
vt 0.368838 0.788951
vt 0.372231 0.397855
vt 0.387474 0.788036
vt 0.406567 0.787417
vt 0.397254 0.397044
vt 0.425818 0.787105
vt 0.422483 0.396635
vt 0.444922 0.787105
vt 0.447519 0.396635
vt 0.463578 0.787417
vt 0.495444 0.397855
vt 0.481491 0.788036
vt 0.498380 0.788951
vt 0.517577 0.399055
vt 0.513978 0.790150
vt 0.556445 0.402542
vt 0.528038 0.791613
vt 0.572567 0.404774
vt 0.540340 0.793316
vt -0.000000 0.408838
vt 0.045617 0.796088
vt 0.031569 0.797665
vt 0.018410 0.406772
vt 0.061205 0.794762
vt 0.060961 0.403655
vt 0.078086 0.793709
vt 0.095993 0.792945
vt 0.108875 0.402046
vt 0.114646 0.792481
vt 0.133749 0.792326
vt 0.133910 0.401842
vt 0.153002 0.792481
vt 0.159141 0.402046
vt 0.172100 0.792945
vt 0.184170 0.402653
vt 0.190743 0.793709
vt 0.208602 0.403655
vt 0.208636 0.794762
vt 0.232051 0.405035
vt 0.225498 0.796088
vt 0.254149 0.406772
vt 0.241062 0.797665
vt 0.401049 0.008076
vt 0.449789 0.394945
vt 0.435754 0.396635
vt 0.419442 0.005861
vt 0.465365 0.393494
vt 0.461966 0.002401
vt 0.482237 0.392305
vt 0.485426 0.001210
vt 0.500138 0.391396
vt 0.518786 0.390782
vt 0.509865 0.000406
vt 0.537888 0.390473
vt 0.030881 0.308580
vt 0.053961 0.322169
vt 0.045712 0.328993
vt 0.534898 0.000000
vt 0.557141 0.390473
vt 0.560130 0.000000
vt 0.701180 0.105937
vt 0.951940 0.041553
vt 0.903428 0.295860
vt 0.108887 0.367608
vt 0.088718 0.047033
vt 0.387371 0.165278
vt 0.250492 0.395530
vt 0.270548 0.377779
vt 0.274489 0.387733
vt 0.401049 0.213537
vt 0.387371 0.236564
vt 0.390365 0.212865
vt 0.297319 0.024853
vt 0.312330 0.047033
vt 0.292161 0.034234
vt 0.150558 0.395530
vt 0.176684 0.389637
vt 0.175343 0.400258
vt 0.082426 0.038373
vt 0.108887 0.034234
vt -0.000000 0.213537
vt 0.013678 0.236564
vt 0.003162 0.238570
vt 0.126561 0.387733
vt 0.153220 0.385161
vt 0.355337 0.328993
vt 0.361129 0.302844
vt 0.370168 0.308580
vt 0.370168 0.093262
vt 0.372637 0.119931
vt 0.361129 0.098998
vt 0.175342 0.001584
vt 0.200524 0.010705
vt 0.176684 0.012205
vt 0.009437 0.138833
vt 0.028412 0.119931
vt 0.019619 0.142141
vt 0.070313 0.339582
vt 0.062985 0.347386
vt 0.292162 0.367608
vt 0.297319 0.376989
vt 0.390365 0.188977
vt 0.401049 0.188305
vt 0.274488 0.014109
vt 0.270547 0.024063
vt 0.062985 0.054456
vt 0.070313 0.062260
vt 0.019619 0.259701
vt 0.009437 0.263009
vt 0.200525 0.391137
vt 0.200525 0.401842
vt 0.372637 0.281911
vt 0.382323 0.286469
vt 0.355337 0.072849
vt 0.347088 0.079673
vt 0.150557 0.006312
vt 0.153220 0.016681
vt 0.003162 0.163272
vt 0.013678 0.165278
vt 0.088719 0.354809
vt 0.082426 0.363470
vt 0.312330 0.354809
vt 0.318623 0.363469
vt 0.397887 0.163272
vt 0.250491 0.006312
vt 0.247829 0.016681
vt 0.045712 0.072849
vt 0.053961 0.079673
vt 0.028412 0.281911
vt 0.018726 0.286469
vt 0.224365 0.389637
vt 0.225707 0.400258
vt 0.381430 0.259701
vt 0.391612 0.263009
vt 0.338064 0.054456
vt 0.330736 0.062260
vt 0.126560 0.014109
vt 0.130501 0.024063
vt -0.000000 0.188305
vt 0.010684 0.188977
vt 0.103730 0.376989
vt 0.330736 0.339582
vt 0.338064 0.347386
vt 0.391612 0.138833
vt 0.381430 0.142141
vt 0.225707 0.001584
vt 0.224365 0.012205
vt 0.030881 0.093262
vt 0.039920 0.098998
vt 0.039920 0.302844
vt 0.247829 0.385161
vt 0.397887 0.238570
vt 0.318623 0.038372
vt 0.103730 0.024853
vt 0.010684 0.212865
vt 0.130502 0.377779
vt 0.347088 0.322169
vt 0.382323 0.115373
vt 0.200524 -0.000000
vt 0.018726 0.115373
vt 0.585163 0.000406
vt 0.693979 0.008076
vt 0.713203 0.396635
vt 0.786152 0.398448
vt 0.847113 0.403631
vt 0.347808 0.399055
vt 0.471968 0.397044
vt 0.538019 0.400626
vt 0.038838 0.405035
vt 0.084430 0.402653
vt 0.274546 0.408838
vt 0.439855 0.003960
vt 0.696392 0.182041
vt 0.693979 0.162939
vt 0.693979 0.143686
vt 0.696392 0.124585
vt 0.708268 0.088035
vt 0.717543 0.071164
vt 0.728860 0.055588
vt 0.742040 0.041553
vt 0.756875 0.029280
vt 0.773131 0.018964
vt 0.790551 0.010766
vt 0.808862 0.004817
vt 0.827774 0.001209
vt 0.846990 -0.000000
vt 0.866205 0.001209
vt 0.885117 0.004817
vt 0.903428 0.010766
vt 0.920849 0.018964
vt 0.937105 0.029280
vt 0.965119 0.055588
vt 0.976436 0.071164
vt 0.985711 0.088035
vt 0.992799 0.105937
vt 0.997587 0.124585
vt 1.000000 0.143686
vt 1.000000 0.162940
vt 0.997587 0.182041
vt 0.992799 0.200689
vt 0.985711 0.218590
vt 0.976436 0.235462
vt 0.965119 0.251038
vt 0.951939 0.265073
vt 0.937105 0.277346
vt 0.920849 0.287662
vt 0.885117 0.301809
vt 0.866205 0.305417
vt 0.846990 0.306626
vt 0.827774 0.305417
vt 0.808862 0.301809
vt 0.790551 0.295860
vt 0.773130 0.287662
vt 0.756874 0.277346
vt 0.742040 0.265073
vt 0.728860 0.251038
vt 0.717543 0.235462
vt 0.708268 0.218590
vt 0.701180 0.200689
s 0
f 1/1/1 4/2/1 3/3/1
f 4/2/2 5/4/2 3/3/2
f 6/5/3 7/6/3 5/4/3
f 8/7/4 9/8/4 7/6/4
f 10/9/5 11/10/5 9/8/5
f 12/11/6 13/12/6 11/13/6
f 14/14/7 15/15/7 13/12/7
f 16/16/8 17/17/8 15/15/8
f 18/18/9 19/19/9 17/17/9
f 20/20/10 21/21/10 19/19/10
f 22/22/11 23/23/11 21/21/11
f 23/23/12 26/24/12 25/25/12
f 26/24/13 27/26/13 25/25/13
f 28/27/14 29/28/14 27/26/14
f 29/28/15 32/29/15 31/30/15
f 32/29/16 33/31/16 31/30/16
f 34/32/17 35/33/17 33/31/17
f 36/34/18 37/35/18 35/36/18
f 38/37/19 39/38/19 37/35/19
f 40/39/20 41/40/20 39/38/20
f 41/40/21 44/41/21 43/42/21
f 44/41/22 45/43/22 43/42/22
f 46/44/23 47/45/23 45/43/23
f 48/46/24 49/47/24 47/45/24
f 50/48/25 51/49/25 49/47/25
f 51/49/26 54/50/26 53/51/26
f 54/50/27 55/52/27 53/51/27
f 56/53/28 57/54/28 55/52/28
f 57/54/29 60/55/29 59/56/29
f 59/56/30 62/57/30 61/58/30
f 62/59/31 63/60/31 61/61/31
f 64/62/32 65/63/32 63/60/32
f 65/63/33 68/64/33 67/65/33
f 68/64/34 69/66/34 67/65/34
f 69/66/35 72/67/35 71/68/35
f 72/67/36 73/69/36 71/68/36
f 74/70/37 75/71/37 73/69/37
f 76/72/38 77/73/38 75/71/38
f 78/74/39 79/75/39 77/73/39
f 80/76/40 81/77/40 79/75/40
f 82/78/41 83/79/41 81/77/41
f 84/80/42 85/81/42 83/79/42
f 86/82/43 87/83/43 85/84/43
f 88/85/44 89/86/44 87/83/44
f 89/86/45 92/87/45 91/88/45
f 91/88/46 94/89/46 93/90/46
f 94/89/47 95/91/47 93/90/47
f 96/92/48 97/93/48 95/91/48
f 90/94/49 146/95/49 92/96/49
f 98/97/50 99/98/50 97/93/50
f 100/99/51 1/1/51 99/98/51
f 7/100/52 39/101/52 71/102/52
f 149/103/53 133/104/53 117/105/53
f 10/106/54 106/107/54 12/108/54
f 30/109/55 114/110/55 115/111/55
f 48/112/56 123/113/56 124/114/56
f 2/115/57 101/116/57 4/117/57
f 66/118/58 132/119/58 133/104/58
f 82/120/59 142/121/59 84/122/59
f 100/123/60 102/124/60 2/115/60
f 20/125/61 111/126/61 22/127/61
f 40/128/62 119/129/62 120/130/62
f 58/131/63 128/132/63 129/133/63
f 76/134/64 137/135/64 138/136/64
f 92/96/65 147/137/65 94/138/65
f 12/108/66 107/139/66 14/140/66
f 30/109/67 116/141/67 32/142/67
f 50/143/68 124/114/68 125/144/68
f 68/145/69 133/104/69 134/146/69
f 84/122/70 143/147/70 86/148/70
f 4/117/71 103/149/71 6/150/71
f 22/127/72 112/151/72 24/152/72
f 42/153/73 120/130/73 121/154/73
f 60/155/74 129/133/74 130/156/74
f 78/157/75 138/136/75 139/158/75
f 94/138/76 148/159/76 96/160/76
f 14/140/77 108/161/77 16/162/77
f 34/163/78 116/141/78 117/105/78
f 52/164/79 125/144/79 126/165/79
f 70/166/80 134/146/80 135/167/80
f 86/148/81 144/168/81 88/169/81
f 6/150/82 104/170/82 8/171/82
f 24/152/83 113/172/83 26/173/83
f 44/174/84 121/154/84 122/175/84
f 62/176/85 130/156/85 131/177/85
f 80/178/86 139/158/86 140/179/86
f 96/160/87 149/103/87 98/180/87
f 16/162/88 109/181/88 18/182/88
f 36/183/89 117/105/89 118/184/89
f 54/185/90 126/165/90 127/186/90
f 72/187/91 135/167/91 136/188/91
f 88/169/92 145/189/92 90/94/92
f 8/171/93 105/190/93 10/106/93
f 26/173/94 114/110/94 28/191/94
f 46/192/95 122/175/95 123/113/95
f 64/193/96 131/177/96 132/119/96
f 80/178/97 141/194/97 82/120/97
f 98/180/98 150/195/98 100/123/98
f 18/182/99 110/196/99 20/125/99
f 38/197/100 118/184/100 119/129/100
f 56/198/101 127/186/101 128/132/101
f 74/199/102 136/188/102 137/135/102
f 1/1/1 2/200/1 4/2/1
f 4/2/2 6/5/2 5/4/2
f 6/5/3 8/7/3 7/6/3
f 8/7/4 10/9/4 9/8/4
f 10/9/5 12/201/5 11/10/5
f 12/11/6 14/14/6 13/12/6
f 14/14/7 16/16/7 15/15/7
f 16/16/8 18/18/8 17/17/8
f 18/18/9 20/20/9 19/19/9
f 20/20/10 22/22/10 21/21/10
f 22/22/11 24/202/11 23/23/11
f 23/23/12 24/202/12 26/24/12
f 26/24/13 28/27/13 27/26/13
f 28/27/14 30/203/14 29/28/14
f 29/28/15 30/203/15 32/29/15
f 32/29/16 34/32/16 33/31/16
f 34/32/17 36/204/17 35/33/17
f 36/34/18 38/37/18 37/35/18
f 38/37/19 40/39/19 39/38/19
f 40/39/20 42/205/20 41/40/20
f 41/40/21 42/205/21 44/41/21
f 44/41/22 46/44/22 45/43/22
f 46/44/23 48/46/23 47/45/23
f 48/46/24 50/48/24 49/47/24
f 50/48/25 52/206/25 51/49/25
f 51/49/26 52/206/26 54/50/26
f 54/50/27 56/53/27 55/52/27
f 56/53/28 58/207/28 57/54/28
f 57/54/29 58/207/29 60/55/29
f 59/56/30 60/55/30 62/57/30
f 62/59/31 64/62/31 63/60/31
f 64/62/32 66/208/32 65/63/32
f 65/63/33 66/208/33 68/64/33
f 68/64/34 70/209/34 69/66/34
f 69/66/35 70/209/35 72/67/35
f 72/67/36 74/70/36 73/69/36
f 74/70/37 76/72/37 75/71/37
f 76/72/38 78/74/38 77/73/38
f 78/74/39 80/76/39 79/75/39
f 80/76/40 82/78/40 81/77/40
f 82/78/41 84/80/41 83/79/41
f 84/80/42 86/210/42 85/81/42
f 86/82/43 88/85/43 87/83/43
f 88/85/44 90/211/44 89/86/44
f 89/86/45 90/211/45 92/87/45
f 91/88/46 92/87/46 94/89/46
f 94/89/47 96/92/47 95/91/47
f 96/92/48 98/97/48 97/93/48
f 90/94/103 145/189/103 146/95/103
f 98/97/50 100/99/50 99/98/50
f 100/99/51 2/200/51 1/1/51
f 99/212/52 1/213/52 3/214/52
f 3/214/52 5/215/52 7/100/52
f 7/100/52 9/216/52 11/217/52
f 11/217/52 13/218/52 15/219/52
f 15/219/52 17/220/52 19/221/52
f 19/221/52 21/222/52 23/223/52
f 23/223/52 25/224/52 27/225/52
f 27/225/52 29/226/52 31/227/52
f 31/227/52 33/228/52 35/229/52
f 35/229/52 37/230/52 39/101/52
f 39/101/52 41/231/52 43/232/52
f 43/232/52 45/233/52 47/234/52
f 47/234/52 49/235/52 51/236/52
f 51/236/52 53/237/52 55/238/52
f 55/238/52 57/239/52 59/240/52
f 59/240/52 61/241/52 63/242/52
f 63/242/52 65/243/52 67/244/52
f 67/244/52 69/245/52 71/102/52
f 71/102/52 73/246/52 75/247/52
f 75/247/52 77/248/52 79/249/52
f 79/249/52 81/250/52 83/251/52
f 83/251/52 85/252/52 87/253/52
f 87/253/52 89/254/52 91/255/52
f 91/255/52 93/256/52 95/257/52
f 95/257/52 97/258/52 99/212/52
f 99/212/52 3/214/52 7/100/52
f 7/100/52 11/217/52 15/219/52
f 15/219/52 19/221/52 23/223/52
f 23/223/52 27/225/52 31/227/52
f 31/227/52 35/229/52 39/101/52
f 39/101/52 43/232/52 47/234/52
f 47/234/52 51/236/52 55/238/52
f 55/238/52 59/240/52 63/242/52
f 63/242/52 67/244/52 71/102/52
f 71/102/52 75/247/52 79/249/52
f 79/249/52 83/251/52 87/253/52
f 87/253/52 91/255/52 95/257/52
f 95/257/52 99/212/52 7/100/52
f 7/100/52 15/219/52 23/223/52
f 23/223/52 31/227/52 39/101/52
f 39/101/52 47/234/52 55/238/52
f 55/238/52 63/242/52 71/102/52
f 71/102/52 79/249/52 87/253/52
f 87/253/52 95/257/52 7/100/52
f 7/100/52 23/223/52 39/101/52
f 39/101/52 55/238/52 71/102/52
f 71/102/52 87/253/52 7/100/52
f 103/149/53 101/116/53 102/124/53
f 102/124/53 150/195/53 149/103/53
f 149/103/53 148/159/53 147/137/53
f 147/137/53 146/95/53 145/189/53
f 145/189/53 144/168/53 143/147/53
f 143/147/53 142/121/53 141/194/53
f 141/194/53 140/179/53 139/158/53
f 139/158/53 138/136/53 137/135/53
f 137/135/53 136/188/53 135/167/53
f 135/167/53 134/146/53 133/104/53
f 133/104/53 132/119/53 131/177/53
f 131/177/53 130/156/53 129/133/53
f 129/133/53 128/132/53 127/186/53
f 127/186/53 126/165/53 125/144/53
f 125/144/53 124/114/53 123/113/53
f 123/113/53 122/175/53 121/154/53
f 121/154/53 120/130/53 119/129/53
f 119/129/53 118/184/53 117/105/53
f 117/105/53 116/141/53 115/111/53
f 115/111/53 114/110/53 113/172/53
f 113/172/53 112/151/53 111/126/53
f 111/126/53 110/196/53 109/181/53
f 109/181/53 108/161/53 107/139/53
f 107/139/53 106/107/53 105/190/53
f 105/190/53 104/170/53 103/149/53
f 103/149/53 102/124/53 149/103/53
f 149/103/53 147/137/53 145/189/53
f 145/189/53 143/147/53 141/194/53
f 141/194/53 139/158/53 137/135/53
f 137/135/53 135/167/53 133/104/53
f 133/104/53 131/177/53 129/133/53
f 129/133/53 127/186/53 125/144/53
f 125/144/53 123/113/53 121/154/53
f 121/154/53 119/129/53 117/105/53
f 117/105/53 115/111/53 113/172/53
f 113/172/53 111/126/53 109/181/53
f 109/181/53 107/139/53 105/190/53
f 105/190/53 103/149/53 149/103/53
f 149/103/53 145/189/53 141/194/53
f 141/194/53 137/135/53 133/104/53
f 133/104/53 129/133/53 125/144/53
f 125/144/53 121/154/53 117/105/53
f 117/105/53 113/172/53 109/181/53
f 109/181/53 105/190/53 149/103/53
f 149/103/53 141/194/53 133/104/53
f 133/104/53 125/144/53 117/105/53
f 117/105/53 109/181/53 149/103/53
f 10/106/54 105/190/54 106/107/54
f 30/109/55 28/191/55 114/110/55
f 48/112/56 46/192/56 123/113/56
f 2/115/57 102/124/57 101/116/57
f 66/118/58 64/193/58 132/119/58
f 82/120/59 141/194/59 142/121/59
f 100/123/60 150/195/60 102/124/60
f 20/125/61 110/196/61 111/126/61
f 40/128/62 38/197/62 119/129/62
f 58/131/63 56/198/63 128/132/63
f 76/134/64 74/199/64 137/135/64
f 92/96/65 146/95/65 147/137/65
f 12/108/66 106/107/66 107/139/66
f 30/109/67 115/111/67 116/141/67
f 50/143/68 48/112/68 124/114/68
f 68/145/69 66/118/69 133/104/69
f 84/122/70 142/121/70 143/147/70
f 4/117/71 101/116/71 103/149/71
f 22/127/72 111/126/72 112/151/72
f 42/153/73 40/128/73 120/130/73
f 60/155/74 58/131/74 129/133/74
f 78/157/75 76/134/75 138/136/75
f 94/138/76 147/137/76 148/159/76
f 14/140/77 107/139/77 108/161/77
f 34/163/78 32/142/78 116/141/78
f 52/164/79 50/143/79 125/144/79
f 70/166/80 68/145/80 134/146/80
f 86/148/81 143/147/81 144/168/81
f 6/150/82 103/149/82 104/170/82
f 24/152/83 112/151/83 113/172/83
f 44/174/84 42/153/84 121/154/84
f 62/176/85 60/155/85 130/156/85
f 80/178/86 78/157/86 139/158/86
f 96/160/87 148/159/87 149/103/87
f 16/162/88 108/161/88 109/181/88
f 36/183/89 34/163/89 117/105/89
f 54/185/90 52/164/90 126/165/90
f 72/187/91 70/166/91 135/167/91
f 88/169/92 144/168/92 145/189/92
f 8/171/93 104/170/93 105/190/93
f 26/173/94 113/172/94 114/110/94
f 46/192/95 44/174/95 122/175/95
f 64/193/96 62/176/96 131/177/96
f 80/178/97 140/179/97 141/194/97
f 98/180/98 149/103/98 150/195/98
f 18/182/99 109/181/99 110/196/99
f 38/197/100 36/183/100 118/184/100
f 56/198/101 54/185/101 127/186/101
f 74/199/102 72/187/102 136/188/102
